<?xml version="1.0" standalone="no"?>
<!DOCTYPE svg PUBLIC "-//W3C//DTD SVG 20010904//EN"
 "http://www.w3.org/TR/2001/REC-SVG-20010904/DTD/svg10.dtd">
<svg version="1.0" xmlns="http://www.w3.org/2000/svg"
 width="512.000000pt" height="512.000000pt" viewBox="0 0 512.000000 512.000000"
 preserveAspectRatio="xMidYMid meet">

<g transform="translate(0.000000,512.000000) scale(0.100000,-0.100000)"
fill="#000000" stroke="none">
<path d="M2651 5004 c-69 -19 -108 -43 -161 -100 -136 -148 -114 -380 48 -499
26 -19 64 -40 85 -47 l37 -11 0 -127 0 -127 -72 -18 c-233 -56 -514 -194 -723
-354 -76 -58 -243 -218 -308 -296 l-50 -60 -383 -5 -382 -5 -26 -24 c-50 -48
-39 -133 21 -160 16 -7 129 -11 323 -11 165 0 300 -2 300 -4 0 -2 -24 -50 -54
-107 -29 -57 -68 -143 -86 -191 l-33 -88 -563 0 -563 0 -26 -22 c-34 -30 -44
-88 -20 -124 35 -53 41 -54 601 -54 l516 0 -6 -22 c-7 -27 -33 -217 -42 -300
l-5 -58 -230 0 c-250 0 -274 -4 -297 -55 -15 -33 -15 -57 0 -90 23 -51 47 -55
301 -55 l234 0 7 -80 c6 -77 42 -275 52 -292 3 -4 -141 -8 -321 -8 -353 0
-377 -3 -410 -54 -24 -36 -14 -94 20 -124 26 -22 27 -22 401 -22 l375 0 11
-32 c20 -58 115 -244 168 -329 194 -313 487 -575 825 -739 491 -239 1018 -271
1550 -95 87 29 331 145 408 195 60 38 83 85 67 135 -25 77 -91 84 -199 21
-186 -109 -386 -186 -593 -228 -98 -20 -143 -23 -343 -23 -201 0 -244 3 -345
23 -584 118 -1049 478 -1300 1005 -237 499 -236 1074 5 1573 211 438 593 773
1057 929 953 318 1982 -193 2298 -1142 172 -518 110 -1067 -174 -1538 -38 -64
-43 -89 -24 -130 21 -46 93 -69 139 -45 25 14 77 97 143 228 342 683 271 1498
-185 2112 -77 104 -247 281 -349 363 -214 173 -482 310 -743 379 l-87 23 0
125 0 125 56 24 c71 31 139 97 172 169 37 81 38 193 0 273 -36 79 -89 133
-166 171 l-67 33 -415 2 c-341 2 -425 0 -469 -13z m900 -233 c35 -34 39 -44
39 -87 0 -31 -7 -61 -20 -82 -37 -60 -49 -62 -470 -62 -413 0 -426 2 -468 55
-47 59 -31 154 31 194 31 20 48 21 441 21 l408 0 39 -39z m-211 -533 l0 -103
-240 0 -240 0 0 103 0 102 240 0 240 0 0 -102z"/>
<path d="M2985 3668 c-604 -36 -1154 -460 -1354 -1044 -93 -273 -107 -600 -36
-879 156 -615 674 -1077 1302 -1160 852 -114 1636 493 1743 1348 17 135 8 374
-19 500 -149 701 -749 1211 -1456 1239 -38 2 -119 0 -180 -4z m330 -213 c584
-96 1030 -550 1121 -1140 19 -121 14 -343 -10 -455 -59 -273 -180 -496 -375
-690 -198 -197 -414 -314 -684 -371 -135 -29 -380 -32 -510 -6 -187 38 -372
115 -527 220 -41 29 -123 99 -181 157 -195 194 -316 417 -375 690 -24 112 -29
334 -10 455 90 586 537 1043 1115 1140 106 18 328 18 436 0z"/>
<path d="M3051 3276 c-37 -20 -50 -55 -51 -129 0 -76 17 -118 57 -136 32 -15
59 -14 92 3 38 20 51 55 51 142 0 70 -2 78 -29 105 -33 32 -78 38 -120 15z"/>
<path d="M3765 2916 c-16 -8 -142 -127 -279 -264 l-249 -250 -40 14 c-49 17
-150 17 -197 -1 l-35 -13 -126 124 c-116 114 -129 124 -163 124 -48 0 -72 -13
-91 -50 -31 -60 -24 -74 110 -209 l124 -126 -14 -49 c-32 -106 -8 -216 66
-299 120 -137 338 -137 458 0 74 83 98 193 66 299 l-15 49 260 260 c255 256
260 262 260 302 0 30 -7 47 -26 67 -15 14 -32 26 -40 26 -7 0 -18 2 -26 5 -7
2 -26 -2 -43 -9z m-621 -696 c14 -5 35 -24 46 -42 27 -42 20 -91 -16 -130 -23
-23 -36 -28 -74 -28 -38 0 -51 5 -74 28 -83 87 5 215 118 172z"/>
<path d="M1965 2196 c-46 -46 -43 -112 7 -149 29 -22 108 -33 161 -23 84 16
116 108 58 167 -28 28 -34 29 -116 29 -78 0 -88 -2 -110 -24z"/>
<path d="M4009 2191 c-21 -22 -29 -39 -29 -66 0 -79 45 -109 158 -103 69 3 76
6 103 36 31 35 36 66 17 107 -18 40 -57 55 -143 55 -71 0 -79 -2 -106 -29z"/>
<path d="M3073 1243 c-12 -2 -34 -18 -48 -34 -22 -27 -25 -40 -25 -110 0 -73
2 -81 29 -111 33 -37 82 -43 125 -14 35 22 46 53 46 126 0 32 -4 70 -10 84
-15 40 -70 68 -117 59z"/>
<path d="M63 1595 c-99 -43 -71 -185 36 -185 96 0 138 124 59 173 -37 24 -61
27 -95 12z"/>
<path d="M4430 863 c-8 -3 -27 -17 -42 -31 -22 -20 -28 -35 -28 -66 0 -116
168 -134 196 -21 16 66 -64 141 -126 118z"/>
</g>
</svg>
