<?xml version="1.0" standalone="no"?>
<!DOCTYPE svg PUBLIC "-//W3C//DTD SVG 20010904//EN"
 "http://www.w3.org/TR/2001/REC-SVG-20010904/DTD/svg10.dtd">
<svg version="1.0" xmlns="http://www.w3.org/2000/svg"
 width="512.000000pt" height="512.000000pt" viewBox="0 0 512.000000 512.000000"
 preserveAspectRatio="xMidYMid meet">

<g transform="translate(0.000000,512.000000) scale(0.100000,-0.100000)"
fill="#000000" stroke="none">
<path d="M2691 5095 c-40 -19 -94 -65 -213 -182 -87 -87 -161 -168 -164 -180
-15 -58 31 -112 83 -98 17 4 91 69 188 165 158 156 192 180 255 180 74 0 71 2
803 -728 395 -394 717 -723 728 -744 21 -41 25 -111 8 -155 -5 -15 -166 -184
-357 -375 l-347 -348 -939 0 -940 0 277 278 c248 249 277 282 277 311 0 21 -9
41 -25 56 -52 53 -51 53 -415 -309 l-335 -334 -155 -4 c-130 -4 -164 -8 -212
-27 -75 -29 -149 -100 -185 -176 l-28 -60 0 -1045 0 -1045 26 -56 c37 -79 90
-133 167 -171 l67 -33 1720 0 1720 0 67 33 c73 36 124 87 160 161 21 42 23 62
26 250 3 176 1 206 -13 221 -35 39 -103 30 -124 -17 -7 -14 -11 -89 -11 -189
0 -144 -2 -170 -20 -203 -25 -49 -70 -88 -119 -101 -27 -7 -580 -9 -1714 -8
l-1675 3 -43 30 c-23 17 -52 48 -63 70 -20 39 -21 55 -24 588 l-3 547 1831 0
1830 0 0 -246 0 -246 30 -29 c23 -24 34 -28 57 -23 15 4 36 14 46 22 16 15 17
58 15 761 l-3 746 -30 53 c-38 70 -112 136 -181 161 -52 20 -76 21 -444 21
-215 0 -390 3 -390 7 0 4 132 140 294 303 176 176 302 311 314 335 49 98 49
211 1 314 -17 35 -196 221 -743 768 -820 821 -762 773 -926 773 -80 0 -103 -4
-149 -25z m2007 -2646 c26 -13 54 -38 70 -62 26 -39 27 -46 30 -204 l3 -163
-1830 0 -1831 0 0 138 c0 75 5 154 11 175 12 46 63 105 104 123 24 11 345 13
1714 14 l1685 0 44 -21z"/>
<path d="M2679 4576 c-65 -23 -102 -53 -246 -198 -96 -97 -149 -158 -162 -188
-60 -137 -21 -289 96 -374 86 -63 207 -77 300 -36 64 28 343 303 381 375 37
71 38 187 2 260 -67 137 -235 210 -371 161z m155 -150 c66 -28 104 -109 85
-181 -9 -31 -40 -70 -142 -172 -72 -73 -145 -139 -163 -148 -120 -57 -243 49
-209 182 8 34 266 299 310 319 39 17 78 17 119 0z"/>
<path d="M1188 3623 c-1071 -1072 -1003 -994 -1003 -1153 0 -142 12 -160 303
-453 136 -137 260 -255 275 -263 51 -27 107 7 107 64 0 33 -18 54 -259 296
-214 216 -261 268 -270 301 -14 50 -14 60 0 110 9 35 138 167 949 980 516 517
943 950 949 962 17 33 13 51 -14 78 -16 17 -35 25 -57 25 -30 0 -107 -74 -980
-947z"/>
<path d="M1298 3073 c-324 -324 -591 -596 -594 -606 -13 -43 34 -97 84 -97 9
0 283 267 609 592 643 643 623 619 568 673 -54 55 -30 74 -667 -562z"/>
<path d="M2590 853 c-84 -27 -90 -45 -90 -262 l0 -181 29 -32 29 -33 521 -3
c574 -3 564 -4 596 59 13 25 16 61 13 209 -3 161 -5 180 -23 200 -44 49 -51
50 -572 49 -268 0 -495 -3 -503 -6z m950 -258 l0 -105 -445 0 -445 0 0 105 0
105 445 0 445 0 0 -105z"/>
<path d="M3960 854 c-85 -30 -90 -45 -90 -263 l0 -181 29 -32 29 -33 282 0
282 0 29 33 29 32 0 180 c0 277 15 264 -325 267 -137 1 -257 0 -265 -3z m440
-259 l0 -105 -190 0 -190 0 0 105 0 105 190 0 190 0 0 -105z"/>
<path d="M1652 467 c-29 -31 -29 -80 0 -107 21 -19 34 -20 288 -20 288 0 301
2 314 55 7 29 -15 79 -39 89 -9 3 -135 6 -279 6 -261 0 -263 0 -284 -23z"/>
</g>
</svg>
