<?xml version="1.0" standalone="no"?>
<!DOCTYPE svg PUBLIC "-//W3C//DTD SVG 20010904//EN"
 "http://www.w3.org/TR/2001/REC-SVG-20010904/DTD/svg10.dtd">
<svg version="1.0" xmlns="http://www.w3.org/2000/svg"
 width="512.000000pt" height="512.000000pt" viewBox="0 0 512.000000 512.000000"
 preserveAspectRatio="xMidYMid meet">

<g transform="translate(0.000000,512.000000) scale(0.100000,-0.100000)"
fill="#000000" stroke="none">
<path d="M765 5111 c-11 -5 -29 -19 -40 -31 -20 -22 -20 -38 -23 -766 l-2
-743 -329 -265 c-181 -145 -338 -277 -350 -292 l-21 -27 0 -1263 c0 -881 3
-1279 11 -1316 39 -186 211 -358 397 -397 75 -16 4229 -16 4304 0 186 39 358
211 397 397 8 37 11 435 11 1317 l0 1263 -25 30 c-13 16 -170 143 -349 282
l-324 252 -4 75 c-3 70 -6 77 -36 104 -45 40 -84 39 -128 -5 l-34 -34 -1 -198
c0 -110 -3 -192 -6 -184 -3 8 -118 128 -256 267 -248 250 -250 252 -235 276
45 68 61 218 34 308 -37 121 -120 218 -233 272 -64 30 -75 32 -178 32 -98 0
-116 -3 -165 -26 l-55 -27 -255 254 c-278 276 -278 276 -345 236 -27 -17 -68
-109 -369 -818 l-340 -799 -211 -215 c-116 -118 -224 -237 -239 -263 -135
-234 -79 -536 129 -697 211 -163 484 -155 694 20 l63 53 164 -164 c183 -183
181 -175 59 -178 -73 -2 -221 -35 -313 -71 -110 -42 -234 -120 -343 -214 l-92
-78 -413 413 -414 414 0 1307 0 1308 575 0 575 0 32 29 c44 39 46 98 5 139
l-27 27 -638 2 c-350 1 -646 -2 -657 -6z m3171 -1798 c-1 -1 -48 -22 -103 -47
l-100 -44 -606 607 -606 606 30 70 c17 39 37 86 45 105 l15 34 664 -664 c365
-365 663 -665 661 -667z m-951 367 c296 -296 537 -541 535 -543 -3 -3 -225
-98 -493 -212 l-489 -208 -259 259 c-166 166 -258 265 -256 275 8 32 410 969
416 969 3 0 249 -243 546 -540z m-2285 -772 l0 -403 -220 220 c-121 121 -220
223 -220 227 0 5 430 357 438 358 1 0 2 -181 2 -402z m4160 42 c0 -3 -99 -104
-220 -225 l-220 -220 0 398 0 397 220 -172 c121 -95 220 -174 220 -178z
m-1054 -1059 l-414 -414 -81 71 c-146 129 -283 207 -446 253 -44 13 -82 25
-85 26 -2 2 55 63 127 136 135 135 158 168 147 215 -4 17 -74 95 -182 204 -97
98 -174 179 -171 182 2 2 332 144 733 315 401 171 740 320 753 332 12 13 24
30 25 38 2 9 4 -200 5 -464 l3 -480 -414 -414z m-2236 -553 c0 -9 -1200 -1098
-1210 -1098 -21 0 -102 88 -127 138 l-28 57 -3 1140 -2 1140 685 -685 c377
-377 685 -688 685 -692z m3335 -913 c-17 -60 -60 -122 -109 -160 -31 -23 -38
-25 -54 -13 -35 25 -1192 1080 -1192 1086 0 4 307 314 683 690 l682 682 3
-1117 c2 -962 0 -1125 -13 -1168z m-2155 1670 l-60 -60 -147 147 -148 148 60
60 60 60 147 -147 148 -148 -60 -60z m-75 -460 c129 -11 300 -80 416 -168 31
-23 359 -316 728 -652 l672 -610 -966 -3 c-531 -1 -1400 -1 -1931 0 l-965 3
163 148 163 147 382 0 383 0 32 29 c44 39 46 98 5 139 l-27 27 -275 5 -275 5
396 360 c218 198 422 379 453 403 69 52 192 113 287 142 70 21 214 39 264 34
14 -2 57 -6 95 -9z"/>
<path d="M2031 671 c-25 -24 -31 -37 -31 -71 0 -34 6 -47 31 -71 42 -39 87
-39 131 0 27 24 33 36 33 71 0 35 -6 47 -33 71 -44 39 -89 39 -131 0z"/>
<path d="M3503 5110 c-43 -18 -57 -56 -61 -168 -3 -61 0 -120 7 -143 24 -79
107 -105 162 -50 l29 29 0 137 c0 75 -5 145 -10 156 -12 22 -61 49 -87 48 -10
0 -28 -4 -40 -9z"/>
<path d="M4300 5112 c-28 -4 -441 -407 -466 -454 -21 -41 -17 -74 15 -110 24
-27 36 -33 70 -33 41 0 46 4 271 231 225 224 230 231 230 271 0 64 -51 105
-120 95z"/>
<path d="M1161 4546 c-47 -26 -63 -84 -37 -135 25 -47 49 -51 287 -51 239 0
264 5 287 55 23 51 7 107 -39 131 -39 20 -462 20 -498 0z"/>
<path d="M1914 4526 c-46 -46 -46 -86 0 -132 25 -24 43 -34 66 -34 44 0 100
56 100 100 0 44 -56 100 -100 100 -23 0 -41 -9 -66 -34z"/>
<path d="M4053 4316 c-23 -20 -28 -32 -28 -69 0 -81 47 -107 196 -107 111 0
143 7 173 37 41 41 40 96 -1 138 -25 24 -29 25 -169 25 -137 0 -144 -1 -171
-24z"/>
<path d="M1161 3986 c-67 -37 -65 -143 4 -174 40 -19 537 -17 574 2 66 35 66
137 0 172 -39 20 -542 20 -578 0z"/>
</g>
</svg>
