<?xml version="1.0" standalone="no"?>
<!DOCTYPE svg PUBLIC "-//W3C//DTD SVG 20010904//EN"
 "http://www.w3.org/TR/2001/REC-SVG-20010904/DTD/svg10.dtd">
<svg version="1.0" xmlns="http://www.w3.org/2000/svg"
 width="512.000000pt" height="512.000000pt" viewBox="0 0 512.000000 512.000000"
 preserveAspectRatio="xMidYMid meet">

<g transform="translate(0.000000,512.000000) scale(0.100000,-0.100000)"
fill="#000000" stroke="none">
<path d="M2500 4949 c-13 -6 -56 -36 -96 -69 -198 -164 -423 -277 -639 -321
-82 -17 -244 -17 -337 0 -95 17 -138 9 -182 -32 -50 -48 -57 -88 -58 -350 -1
-251 10 -375 47 -563 105 -523 400 -943 870 -1239 50 -31 160 -91 245 -133
209 -104 212 -104 420 0 257 127 416 235 584 398 172 166 283 318 381 522 95
197 157 426 186 678 14 129 14 554 -1 609 -26 96 -94 132 -213 113 -138 -22
-184 -24 -283 -12 -230 27 -463 134 -685 312 -53 43 -109 82 -124 88 -33 12
-82 12 -115 -1z m133 -208 c201 -165 453 -289 679 -335 90 -19 292 -21 385 -5
35 6 66 9 69 6 10 -10 6 -475 -5 -567 -79 -672 -414 -1135 -1048 -1448 l-153
-75 -147 72 c-479 236 -787 556 -947 984 -86 231 -120 451 -119 790 0 131 2
240 5 242 3 3 31 0 64 -7 80 -15 273 -15 364 1 227 40 513 180 715 349 33 28
62 51 63 51 2 1 36 -26 75 -58z"/>
<path d="M2395 4146 c-37 -17 -80 -62 -94 -99 -6 -16 -11 -62 -11 -103 l0 -74
-75 0 c-85 0 -128 -14 -167 -56 -41 -44 -48 -75 -48 -215 0 -143 9 -176 56
-221 41 -38 75 -48 160 -48 l74 0 0 -74 c0 -85 10 -119 48 -160 45 -47 78 -56
222 -56 144 0 177 9 222 56 38 41 48 75 48 160 l0 74 74 0 c85 0 119 10 160
48 47 45 56 78 56 222 0 144 -9 177 -56 222 -41 38 -75 48 -160 48 l-74 0 0
74 c0 41 -5 87 -11 103 -14 38 -57 83 -96 99 -44 19 -286 19 -328 0z m275
-262 c0 -114 0 -116 29 -145 29 -29 31 -29 145 -29 l116 0 0 -110 0 -110 -116
0 c-114 0 -116 0 -145 -29 -29 -29 -29 -31 -29 -145 l0 -116 -110 0 -110 0 0
116 c0 114 0 116 -29 145 -29 29 -31 29 -145 29 l-116 0 0 110 0 110 116 0
c114 0 116 0 145 29 29 29 29 31 29 145 l0 116 110 0 110 0 0 -116z"/>
<path d="M905 3895 c-50 -49 -15 -135 55 -135 41 0 80 39 80 80 0 41 -39 80
-80 80 -19 0 -40 -9 -55 -25z"/>
<path d="M4116 3898 c-23 -20 -28 -38 -42 -138 -22 -163 -45 -265 -99 -429
-40 -124 -45 -146 -35 -171 21 -51 86 -65 124 -27 52 53 161 462 173 653 6 90
6 91 -22 112 -35 28 -67 28 -99 0z"/>
<path d="M985 3612 c-55 -12 -69 -52 -49 -139 51 -221 209 -594 264 -623 50
-27 120 11 120 66 0 14 -20 63 -44 107 -59 108 -127 279 -161 403 -42 155 -47
166 -80 179 -17 6 -39 10 -50 7z"/>
<path d="M357 3346 c-93 -34 -164 -110 -188 -198 -6 -24 -9 -282 -7 -715 l3
-678 24 -60 c21 -55 50 -87 317 -355 l294 -296 0 -81 0 -81 -34 -12 c-49 -16
-83 -45 -106 -91 -18 -35 -20 -59 -20 -261 0 -251 3 -266 73 -322 l39 -31 636
-3 c716 -3 673 -7 737 72 l30 38 3 233 c3 218 2 236 -17 273 -24 46 -58 76
-106 92 l-33 11 -4 222 c-4 322 47 243 -547 840 -355 357 -499 496 -536 515
-40 21 -64 26 -122 27 l-72 0 -3 330 c-3 312 -4 333 -24 376 -26 56 -80 112
-136 140 -53 27 -149 34 -201 15z m134 -161 c16 -9 39 -30 49 -48 19 -30 20
-53 20 -399 0 -362 0 -368 -22 -410 -18 -34 -23 -59 -23 -123 0 -69 4 -86 27
-125 14 -25 111 -129 215 -232 176 -174 192 -188 225 -188 44 0 78 36 78 83 0
25 -29 59 -195 227 -189 191 -195 198 -195 238 0 47 32 92 80 112 68 28 62 34
581 -488 415 -416 487 -493 497 -528 7 -25 12 -117 12 -233 l0 -191 -440 0
-440 0 0 112 0 112 -299 300 c-164 166 -307 317 -317 336 -18 33 -19 70 -19
712 l0 676 25 27 c43 47 89 56 141 30z m1509 -2665 l0 -200 -600 0 -600 0 0
200 0 200 600 0 600 0 0 -200z"/>
<path d="M4597 3346 c-56 -21 -112 -62 -142 -106 -51 -73 -55 -107 -55 -445
l0 -312 -49 5 c-29 2 -71 -2 -107 -13 -58 -16 -64 -21 -552 -508 -463 -462
-495 -497 -530 -566 l-37 -75 -3 -222 -4 -223 -33 -11 c-48 -16 -82 -46 -105
-91 -18 -35 -20 -59 -20 -261 0 -251 3 -266 73 -322 l39 -31 636 -3 c716 -3
673 -7 737 72 l30 38 3 233 c3 218 2 236 -17 273 -24 46 -58 76 -107 92 l-34
12 0 81 0 81 294 296 c267 268 296 300 317 355 l24 60 0 700 0 700 -30 53
c-32 59 -67 92 -129 124 -51 26 -148 33 -199 14z m167 -185 l31 -31 0 -678 c0
-642 -1 -679 -19 -712 -10 -19 -153 -170 -317 -336 l-299 -300 0 -112 0 -112
-440 0 -440 0 0 191 c0 116 5 208 12 233 10 35 82 112 499 531 l489 490 51 0
c46 0 54 -4 85 -37 27 -30 34 -46 34 -80 0 -40 -4 -46 -189 -232 -115 -116
-192 -202 -196 -218 -14 -56 39 -109 96 -95 13 3 112 95 220 204 167 169 198
205 212 247 24 72 22 141 -8 204 l-25 54 0 364 c0 403 0 406 63 445 45 28 101
20 141 -20z m-444 -2641 l0 -200 -600 0 -600 0 0 200 0 200 600 0 600 0 0
-200z"/>
<path d="M3845 2988 c-51 -27 -60 -84 -20 -123 46 -47 118 -23 131 42 5 27 1
37 -24 63 -32 32 -54 36 -87 18z"/>
</g>
</svg>
